<?xml version="1.0" standalone="no"?>
<!DOCTYPE svg PUBLIC "-//W3C//DTD SVG 20010904//EN"
 "http://www.w3.org/TR/2001/REC-SVG-20010904/DTD/svg10.dtd">
<svg version="1.0" xmlns="http://www.w3.org/2000/svg"
 width="512.000000pt" height="512.000000pt" viewBox="0 0 512.000000 512.000000"
 preserveAspectRatio="xMidYMid meet">

<g transform="translate(0.000000,512.000000) scale(0.100000,-0.100000)"
fill="#000000" stroke="none">
<path d="M2427 5105 c-148 -30 -326 -135 -480 -284 -53 -52 -99 -92 -100 -90
-2 2 -11 64 -20 137 -9 74 -21 140 -28 148 -14 17 -51 18 -67 2 -9 -9 -12
-280 -12 -1159 l0 -1147 -77 -20 c-43 -12 -87 -22 -98 -24 -18 -3 -26 30 -107
442 -48 245 -87 446 -87 447 -1 1 -10 7 -22 13 -16 9 -26 8 -45 -5 l-24 -15 0
-844 c0 -804 1 -844 18 -859 10 -10 32 -17 48 -17 80 0 240 -63 361 -142 l63
-40 -6 -157 c-29 -719 -48 -1447 -39 -1465 11 -21 12 -21 855 -21 843 0 844 0
855 21 9 18 -10 746 -39 1465 l-6 157 63 40 c122 80 281 142 363 142 68 0 64
-55 64 878 l0 842 -24 15 c-19 13 -29 14 -45 5 -12 -6 -21 -12 -22 -13 0 -1
-39 -202 -87 -447 -81 -412 -89 -445 -107 -442 -11 2 -55 12 -97 24 l-78 20 0
1147 c0 879 -3 1150 -12 1159 -16 16 -53 15 -67 -2 -7 -8 -19 -74 -28 -148 -9
-73 -18 -135 -20 -137 -1 -2 -47 38 -100 90 -247 239 -496 333 -746 284z m258
-97 c68 -14 175 -64 265 -124 74 -49 270 -230 270 -251 0 -17 -190 -196 -255
-240 -149 -101 -276 -147 -405 -147 -129 0 -256 46 -405 147 -65 44 -255 223
-255 240 0 20 195 202 265 248 199 131 339 165 520 127z m-695 -603 c36 -33
98 -82 137 -108 345 -229 677 -189 1019 123 48 44 89 78 91 76 10 -9 -71 -451
-127 -701 -92 -403 -173 -595 -310 -734 -78 -80 -142 -114 -227 -119 -87 -6
-173 35 -257 121 -133 137 -215 333 -306 732 -48 214 -130 653 -130 702 0 7
24 -13 110 -92z m-125 -380 c112 -589 230 -890 414 -1056 182 -165 380 -165
562 0 184 166 302 467 414 1056 20 105 40 204 44 220 5 17 9 -312 10 -781 1
-636 4 -814 14 -822 16 -13 275 -82 310 -82 14 0 29 6 34 13 4 6 26 104 49
217 l42 205 1 -342 1 -343 -25 0 c-24 0 -25 3 -25 58 0 63 -19 102 -50 102
-36 0 -50 -27 -50 -96 l0 -64 -50 0 -50 0 0 62 c0 65 -17 98 -51 98 -30 0 -49
-39 -49 -102 l0 -58 -50 0 -50 0 0 64 c0 69 -14 96 -50 96 -31 0 -50 -39 -50
-102 l0 -58 -50 0 -50 0 0 64 c0 68 -14 96 -49 96 -31 0 -41 -22 -41 -92 l0
-68 -55 0 -55 0 0 68 c0 72 -10 92 -45 92 -35 0 -45 -20 -45 -92 l0 -68 -55 0
-55 0 0 68 c0 72 -10 92 -45 92 -35 0 -45 -20 -45 -92 l0 -68 -55 0 -55 0 0
68 c0 72 -10 92 -45 92 -35 0 -45 -20 -45 -92 l0 -68 -55 0 -55 0 0 68 c0 73
-10 92 -47 92 -31 0 -43 -28 -43 -99 l0 -61 -50 0 -50 0 0 53 c0 62 -18 101
-47 105 -37 5 -53 -23 -53 -94 l0 -64 -50 0 -50 0 0 58 c0 63 -19 102 -50 102
-36 0 -50 -27 -50 -96 l0 -64 -50 0 -50 0 0 58 c0 87 -37 126 -82 85 -14 -12
-18 -31 -18 -80 l0 -63 -50 0 -50 0 0 64 c0 69 -14 96 -50 96 -31 0 -50 -39
-50 -102 0 -58 0 -58 -30 -58 l-30 0 1 343 1 342 42 -205 c23 -113 45 -211 49
-217 5 -7 20 -13 34 -13 35 0 294 69 311 82 9 8 12 186 13 822 1 469 5 798 10
781 4 -16 24 -115 44 -220z m-445 -1963 l0 -149 -30 5 -30 4 0 144 0 144 30 0
30 0 0 -148z m200 -37 c0 -102 -2 -185 -5 -185 -2 0 -25 10 -50 22 l-45 22 0
163 0 163 50 0 50 0 0 -185z m200 -60 c0 -135 -3 -245 -6 -245 -3 0 -25 14
-50 30 l-44 31 0 214 0 215 50 0 50 0 0 -245z m200 -85 c0 -181 -3 -330 -7
-330 -4 0 -27 19 -50 42 l-43 42 0 288 0 288 50 0 50 0 0 -330z m200 -125 c0
-250 -2 -455 -4 -455 -2 0 -25 29 -50 64 l-46 65 0 390 0 391 50 0 50 0 0
-455z m200 -145 c0 -674 4 -643 -71 -527 l-39 60 0 534 0 533 55 0 55 0 0
-600z m198 -22 l-3 -623 -50 0 -50 0 -3 623 -2 622 55 0 55 0 -2 -622z m202
102 c0 -463 -2 -525 -16 -553 -26 -51 -74 -117 -84 -117 -6 0 -10 225 -10 595
l0 595 55 0 55 0 0 -520z m190 135 l0 -386 -50 -66 -50 -66 0 452 0 451 50 0
50 0 0 -385z m200 102 l0 -283 -43 -42 c-23 -23 -46 -42 -50 -42 -4 0 -7 146
-7 325 l0 325 50 0 50 0 0 -283z m200 71 l0 -213 -50 -33 -50 -32 0 245 0 245
50 0 50 0 0 -212z m200 50 l0 -163 -43 -17 c-23 -10 -46 -18 -50 -18 -4 0 -7
81 -7 180 l0 180 50 0 50 0 0 -162z m150 17 l0 -145 -25 0 -25 0 0 145 0 145
25 0 25 0 0 -145z m-1751 -659 c78 -93 156 -204 229 -327 94 -157 178 -212
322 -212 151 0 226 53 340 242 39 64 101 157 138 206 78 106 236 267 239 245
6 -34 52 -1454 47 -1462 -7 -11 -1521 -11 -1528 0 -3 5 6 325 19 713 14 387
25 717 25 732 l0 29 51 -43 c28 -23 81 -79 118 -123z"/>
<path d="M2528 4943 c-55 -62 -98 -201 -98 -315 0 -134 75 -318 130 -318 30 0
77 72 105 162 42 133 31 277 -31 401 -32 64 -52 87 -74 87 -9 0 -24 -8 -32
-17z m53 -190 c8 -27 14 -79 14 -118 0 -69 -20 -165 -35 -165 -15 0 -35 96
-35 165 0 69 20 165 35 165 4 0 14 -21 21 -47z"/>
</g>
</svg>
